<?xml version="1.0" standalone="no"?>
<!DOCTYPE svg PUBLIC "-//W3C//DTD SVG 20010904//EN"
 "http://www.w3.org/TR/2001/REC-SVG-20010904/DTD/svg10.dtd">
<svg version="1.0" xmlns="http://www.w3.org/2000/svg"
 width="1920.000000pt" height="1920.000000pt" viewBox="0 0 1920.000000 1920.000000"
 preserveAspectRatio="xMidYMid meet">
<metadata>
Created by potrace 1.16, written by Peter Selinger 2001-2019
</metadata>
<g transform="translate(0.000000,1920.000000) scale(0.100000,-0.100000)"
fill="#000000" stroke="none">
<path d="M0 9600 l0 -9600 9600 0 9600 0 0 9600 0 9600 -9600 0 -9600 0 0
-9600z m10206 8649 c47 -11 102 -21 127 -22 9 -1 17 -4 17 -8 0 -4 21 -10 48
-14 26 -4 52 -11 58 -16 7 -5 26 -11 43 -12 17 -1 31 -5 31 -9 0 -10 61 -28
73 -21 5 3 7 1 4 -4 -4 -6 5 -14 20 -18 16 -3 30 -11 33 -16 4 -5 18 -10 33
-11 15 -1 27 -6 27 -10 0 -5 8 -12 18 -15 9 -4 23 -13 30 -20 8 -7 18 -11 23
-8 5 4 9 1 9 -5 0 -6 8 -14 18 -17 9 -4 22 -12 29 -17 6 -6 29 -22 50 -36 36
-23 297 -282 526 -520 56 -58 178 -184 272 -280 616 -633 781 -803 785 -811 3
-4 93 -97 200 -206 107 -110 251 -257 319 -328 68 -72 201 -209 295 -305 94
-96 302 -310 461 -475 160 -165 360 -372 446 -460 409 -419 424 -436 508 -575
49 -80 141 -284 141 -312 0 -8 3 -18 7 -22 9 -9 26 -74 55 -211 18 -85 21
-135 21 -335 0 -129 -5 -309 -11 -400 -12 -161 -23 -348 -42 -720 -5 -102 -14
-259 -20 -350 -14 -230 -29 -493 -40 -705 -5 -99 -17 -301 -25 -450 -16 -277
-26 -468 -44 -800 -6 -104 -15 -260 -21 -345 -5 -85 -12 -209 -15 -275 -3 -66
-10 -190 -15 -275 -17 -279 -31 -512 -41 -700 -10 -197 -32 -601 -49 -890 -14
-250 -38 -672 -55 -980 -8 -146 -19 -344 -25 -440 -31 -547 -78 -1383 -99
-1785 -6 -110 -16 -263 -21 -340 -5 -77 -12 -207 -15 -290 -15 -365 -68 -595
-200 -860 -191 -384 -534 -677 -956 -819 -331 -111 -650 -135 -1269 -96 -85 5
-238 14 -340 20 -102 6 -304 17 -450 25 -146 9 -346 19 -445 25 -187 10 -426
23 -700 40 -88 5 -209 12 -270 15 -60 3 -182 10 -270 15 -88 6 -286 17 -440
25 -154 8 -352 20 -440 25 -160 10 -374 22 -730 40 -104 5 -219 12 -255 15
-36 3 -150 10 -255 15 -104 6 -307 17 -450 25 -143 8 -348 19 -455 25 -657 33
-844 56 -1120 137 -440 130 -789 384 -1007 733 -120 193 -199 413 -242 681
-14 83 -14 406 -1 553 5 61 15 210 21 331 6 121 14 290 19 375 26 449 41 724
50 890 10 194 24 445 40 690 5 80 12 204 15 275 3 72 10 193 15 270 6 77 15
235 21 350 6 116 15 280 19 365 32 553 41 726 50 890 5 102 14 259 19 350 27
424 33 527 41 700 5 102 17 309 25 460 9 151 20 345 25 430 4 85 13 247 19
360 6 113 15 275 21 360 6 85 15 245 21 355 6 110 15 268 19 350 5 83 13 242
19 355 6 113 15 275 21 360 6 85 15 245 21 355 6 110 14 274 19 365 23 441 30
506 67 675 39 178 125 379 233 543 65 98 91 130 180 221 30 31 54 60 52 64 -1
5 2 6 6 3 5 -3 19 2 30 12 11 9 51 42 88 72 38 30 86 73 109 95 22 21 42 38
43 36 8 -7 81 63 75 72 -3 6 -2 7 4 4 11 -7 76 37 67 46 -3 3 4 8 15 12 12 3
18 11 15 17 -4 6 -2 8 3 5 6 -4 21 3 34 14 13 12 40 33 59 48 51 38 69 58 62
67 -4 4 -2 4 4 1 7 -4 29 9 50 28 21 19 40 35 43 35 14 1 99 89 93 96 -4 4 -2
5 3 1 6 -3 16 -3 22 1 19 12 95 76 130 110 18 17 37 32 41 32 4 1 25 17 47 37
22 20 34 32 26 28 -10 -5 -12 -4 -7 4 4 6 12 9 17 5 6 -3 30 15 55 39 25 25
47 45 49 44 9 -5 73 58 68 66 -3 6 -1 7 5 3 6 -3 32 12 59 34 79 67 89 76 134
111 61 48 78 66 71 75 -4 4 -1 4 6 0 7 -4 24 5 43 23 17 17 36 34 43 38 7 5
33 25 57 45 24 21 61 50 81 66 21 16 35 32 31 36 -3 3 1 6 9 6 8 0 26 10 39
23 14 12 45 38 69 57 62 49 79 67 72 76 -4 4 -2 4 5 1 10 -6 163 114 171 134
2 5 9 9 15 9 16 1 77 57 77 70 0 6 4 9 8 6 12 -7 83 59 74 69 -4 4 -2 5 4 2
18 -11 109 64 96 78 -4 5 -2 5 5 1 6 -3 33 12 60 35 88 75 128 108 170 142 23
19 39 38 35 42 -4 5 -2 5 4 2 6 -3 24 6 40 21 17 15 46 39 65 53 57 44 88 76
81 85 -4 4 -1 4 6 0 8 -5 29 7 55 31 24 21 61 52 83 70 101 81 123 101 116
108 -4 4 -2 5 4 3 16 -4 95 63 87 75 -3 6 -2 7 4 4 11 -7 76 37 67 46 -3 3 4
8 15 12 12 3 18 11 15 17 -4 6 -2 8 4 4 6 -3 31 11 55 31 24 21 58 49 75 62
17 14 28 29 25 34 -3 6 -2 7 4 4 11 -7 109 72 105 85 -1 5 2 7 7 4 12 -8 83
59 73 69 -4 5 -2 5 5 2 6 -4 26 5 45 20 52 43 58 50 50 58 -4 5 -1 5 5 1 8 -4
27 7 48 29 20 19 39 35 43 35 4 1 21 12 37 26 17 15 24 23 16 19 -9 -5 -12 -4
-7 3 4 6 13 9 21 6 8 -4 18 1 21 10 3 9 15 16 25 16 10 0 19 6 19 14 0 8 8 14
18 13 16 -1 72 30 72 40 0 2 -5 1 -12 -3 -6 -4 -8 -3 -5 3 4 5 20 10 38 11 38
1 49 10 29 23 -12 7 -9 9 10 8 42 -3 61 1 55 11 -3 6 1 7 9 4 9 -3 16 -1 16 6
0 6 5 8 11 4 6 -3 15 -1 19 5 4 7 18 14 31 15 13 2 59 15 102 30 43 14 93 28
110 31 18 2 46 9 62 14 40 12 431 12 481 0z"/>
<path d="M9765 17900 c-118 -24 -197 -51 -324 -113 -114 -55 -171 -95 -341
-236 -137 -114 -217 -180 -499 -411 -117 -96 -322 -264 -455 -374 -132 -109
-270 -222 -306 -252 -86 -70 -452 -371 -685 -564 -104 -85 -216 -177 -250
-205 -34 -27 -351 -288 -705 -580 -354 -291 -671 -552 -704 -579 -198 -160
-280 -257 -370 -441 -118 -239 -134 -330 -166 -945 -5 -102 -14 -261 -20 -355
-6 -93 -15 -246 -20 -340 -6 -93 -15 -255 -21 -360 -10 -200 -32 -603 -49
-890 -11 -201 -35 -615 -55 -985 -8 -146 -20 -344 -25 -440 -6 -96 -17 -294
-25 -440 -17 -308 -41 -730 -55 -980 -17 -289 -39 -693 -49 -890 -10 -188 -24
-421 -41 -700 -5 -85 -12 -209 -15 -275 -3 -66 -10 -190 -15 -275 -6 -85 -15
-240 -21 -345 -18 -338 -28 -515 -44 -795 -8 -151 -19 -356 -25 -455 -16 -304
-30 -543 -40 -691 -24 -345 -7 -539 66 -754 145 -424 493 -729 983 -861 216
-58 438 -85 861 -104 69 -3 195 -10 280 -15 85 -6 245 -15 355 -21 110 -6 272
-14 360 -19 88 -5 282 -16 430 -25 149 -8 356 -20 460 -25 105 -5 222 -12 260
-15 39 -3 153 -10 255 -15 102 -6 304 -17 450 -25 146 -8 346 -19 445 -25 172
-9 346 -19 700 -40 88 -5 212 -12 275 -15 63 -3 185 -10 270 -15 85 -6 243
-15 350 -21 347 -19 520 -28 800 -44 320 -17 511 -19 666 -5 690 61 1166 448
1304 1060 29 128 38 210 45 375 3 83 10 215 15 295 6 80 15 233 20 340 6 107
15 272 21 365 27 483 40 717 48 885 10 188 24 421 41 700 5 85 12 209 15 275
3 66 10 188 15 270 6 83 15 240 21 350 5 110 14 274 20 365 14 248 38 682 49
885 15 285 30 538 40 700 5 83 12 204 15 270 3 66 10 190 15 275 6 85 15 243
21 350 19 344 28 519 44 790 8 146 21 391 30 545 9 154 20 354 25 445 5 91 16
289 25 440 8 151 22 390 30 530 44 771 43 852 -9 1051 -61 234 -154 388 -365
604 -80 83 -279 287 -441 455 -162 168 -376 388 -475 490 -184 189 -476 490
-485 500 -3 3 -79 82 -170 175 -332 342 -518 534 -660 680 -79 83 -216 224
-305 315 -289 296 -750 774 -801 829 -74 80 -193 172 -291 223 -241 127 -553
177 -798 128z m403 -316 c164 -33 309 -93 452 -189 102 -68 190 -154 485 -475
94 -101 197 -214 231 -250 33 -36 150 -162 259 -280 291 -315 411 -444 495
-535 41 -44 125 -134 185 -200 61 -66 146 -158 189 -205 142 -152 188 -202
371 -400 99 -107 241 -260 315 -340 74 -80 212 -228 305 -330 94 -101 197
-214 231 -250 33 -36 126 -135 206 -221 155 -167 218 -254 273 -372 60 -130
86 -220 111 -384 18 -119 16 -208 -10 -678 -9 -143 -20 -345 -26 -450 -5 -104
-14 -266 -20 -360 -6 -93 -15 -246 -20 -340 -6 -93 -15 -253 -20 -355 -26
-493 -39 -724 -60 -1060 -5 -85 -12 -209 -15 -275 -3 -66 -10 -190 -15 -275
-6 -85 -15 -243 -21 -350 -19 -344 -28 -519 -44 -790 -8 -146 -21 -391 -30
-545 -9 -154 -20 -356 -25 -450 -6 -93 -17 -289 -25 -435 -17 -311 -41 -734
-55 -980 -6 -96 -17 -294 -25 -440 -17 -304 -41 -726 -55 -980 -10 -167 -31
-543 -50 -885 -13 -235 -45 -364 -135 -550 -87 -179 -210 -326 -365 -436 -312
-223 -707 -306 -1285 -270 -104 7 -264 16 -355 21 -91 5 -289 16 -440 25 -151
9 -356 20 -455 25 -186 10 -427 23 -695 40 -85 5 -209 12 -275 15 -66 3 -190
10 -275 15 -85 6 -238 14 -340 20 -102 6 -264 15 -360 20 -375 22 -713 40
-900 50 -107 5 -224 12 -260 15 -36 3 -148 10 -250 15 -102 5 -304 17 -450 25
-146 8 -353 19 -460 25 -428 22 -703 68 -905 150 -11 4 -40 16 -65 26 -281
114 -513 325 -639 581 -21 43 -43 94 -49 113 -78 261 -83 333 -53 720 6 74 18
257 26 405 15 284 38 691 55 985 11 196 35 621 50 895 5 99 14 259 20 355 20
343 30 507 35 620 3 63 10 185 15 270 6 85 15 243 21 350 6 107 14 269 19 360
5 91 16 289 25 440 8 151 22 394 30 540 8 146 20 344 25 440 17 289 39 693 49
890 10 188 24 421 41 700 5 85 12 209 15 275 3 66 10 190 15 275 6 85 15 243
21 350 10 194 15 284 43 795 9 149 20 314 26 368 30 291 152 567 329 746 36
37 235 209 441 383 206 174 587 495 845 714 259 219 657 556 885 749 228 193
566 478 750 634 184 156 402 340 484 410 82 69 184 156 226 192 146 128 305
222 465 273 103 33 107 33 258 35 81 1 156 -5 205 -15z"/>
<path d="M9840 17504 c-200 -36 -365 -128 -618 -344 -129 -111 -961 -816
-1062 -900 -62 -53 -729 -617 -1034 -875 -39 -34 -233 -198 -431 -365 -198
-167 -408 -345 -466 -394 -58 -50 -203 -173 -321 -273 -119 -101 -235 -204
-258 -230 -100 -114 -189 -279 -235 -438 -35 -121 -52 -250 -65 -500 -12 -212
-17 -306 -45 -805 -8 -151 -22 -394 -30 -540 -8 -146 -20 -344 -25 -440 -6
-96 -17 -294 -25 -440 -17 -308 -41 -730 -55 -980 -6 -96 -17 -294 -25 -440
-17 -308 -41 -730 -55 -980 -17 -289 -39 -693 -49 -890 -10 -188 -24 -421 -41
-700 -5 -85 -12 -209 -15 -275 -3 -66 -10 -187 -15 -270 -6 -82 -15 -240 -21
-350 -5 -110 -14 -274 -20 -365 -14 -248 -38 -682 -49 -885 -20 -380 -31 -555
-43 -700 -7 -82 -12 -208 -11 -280 2 -600 396 -1013 1084 -1139 193 -35 232
-38 745 -66 222 -12 487 -27 705 -40 91 -6 248 -15 350 -20 468 -25 816 -44
1070 -60 85 -5 209 -12 275 -15 66 -3 190 -10 275 -15 149 -10 341 -21 705
-40 94 -5 289 -16 435 -25 146 -8 389 -22 540 -30 151 -9 345 -20 430 -25 693
-39 805 -43 970 -32 184 12 329 38 464 83 345 115 598 356 718 684 60 164 71
244 93 660 9 160 20 367 25 460 6 94 17 289 25 435 17 311 41 734 55 980 20
341 40 707 49 895 6 105 13 224 16 265 3 41 10 156 15 255 6 99 17 299 25 445
8 146 19 348 24 450 11 200 26 453 41 700 5 85 12 209 15 275 3 66 10 190 15
275 6 85 15 240 20 345 6 104 15 269 21 365 14 250 37 664 48 880 13 242 29
505 41 710 6 91 15 248 20 350 5 102 17 307 25 455 8 149 20 356 26 460 18
333 -10 520 -110 737 -61 130 -125 211 -395 498 -39 41 -121 129 -181 195 -61
66 -144 156 -185 200 -82 88 -189 204 -495 535 -333 361 -417 451 -499 540
-97 104 -119 128 -427 460 -135 146 -306 330 -379 410 -73 80 -184 199 -245
265 -61 66 -201 217 -309 335 -109 118 -225 241 -259 273 -165 155 -380 255
-624 292 -120 18 -142 17 -243 -1z m-1696 -4591 c102 -25 197 -99 249 -194 43
-79 57 -147 57 -278 0 -135 -13 -185 -53 -200 -13 -5 -84 -6 -160 -2 -106 5
-141 11 -153 23 -19 19 -33 83 -34 156 0 74 -19 140 -43 157 -12 9 -44 15 -74
15 -47 0 -56 -4 -89 -36 -36 -36 -36 -37 -32 -108 3 -58 11 -85 42 -146 48
-95 133 -224 210 -319 277 -343 336 -465 336 -697 0 -234 -85 -395 -252 -477
-161 -80 -395 -76 -566 10 -82 40 -176 136 -215 220 -31 67 -31 70 -30 214 0
123 4 151 19 174 10 15 25 30 35 33 10 4 79 4 153 1 185 -9 182 -6 188 -151 8
-169 36 -218 128 -218 32 0 56 7 82 25 107 73 58 240 -153 527 -247 335 -299
417 -345 541 -24 64 -27 86 -28 197 0 138 10 183 66 298 60 121 189 229 302
252 57 12 289 1 360 -17z m1206 -79 c162 -7 156 -5 173 -67 36 -128 83 -475
107 -782 23 -293 41 -482 69 -745 17 -159 34 -485 27 -513 -11 -45 -34 -49
-215 -39 -204 10 -195 3 -205 166 -7 126 -19 173 -44 180 -10 3 -52 8 -94 12
-121 10 -134 -6 -157 -195 -6 -47 -17 -84 -29 -100 l-20 -26 -138 3 c-172 3
-201 7 -215 33 -16 30 11 232 72 529 60 301 68 337 84 430 9 52 20 113 25 135
5 22 12 60 16 85 5 38 24 134 75 389 10 48 45 191 79 316 22 82 55 170 74 194
8 11 31 12 106 7 52 -3 147 -9 210 -12z m961 -54 c125 -10 135 -12 157 -37 26
-29 26 15 1 -418 -5 -99 -14 -256 -19 -350 -5 -93 -16 -291 -25 -440 -30 -542
-30 -497 -9 -523 18 -22 29 -24 193 -33 96 -5 183 -14 193 -20 31 -16 36 -47
29 -176 -8 -156 -13 -163 -119 -163 -41 0 -138 5 -216 10 -77 6 -217 14 -309
19 -211 11 -207 8 -207 135 0 50 4 150 10 221 5 72 15 222 20 335 6 113 15
279 21 370 12 214 38 674 48 865 8 155 16 185 56 204 26 13 20 13 176 1z
m1257 -70 c90 -6 227 -14 306 -18 113 -6 149 -12 171 -26 l28 -18 -7 -137 c-5
-109 -10 -141 -25 -161 -21 -29 -32 -30 -254 -17 l-138 8 -28 -28 c-26 -27
-28 -35 -35 -143 -3 -63 -9 -147 -12 -186 -6 -64 -4 -72 17 -97 23 -27 28 -28
189 -39 91 -6 171 -16 179 -22 25 -20 29 -52 20 -177 -8 -115 -11 -126 -35
-147 -23 -20 -33 -22 -97 -18 -251 18 -254 18 -276 -5 -26 -28 -27 -37 -42
-291 -11 -188 -11 -209 4 -232 20 -30 41 -34 261 -45 151 -8 160 -10 177 -32
20 -26 23 -77 10 -213 -5 -65 -11 -82 -30 -97 -25 -20 -3 -21 -444 6 -131 8
-265 15 -298 15 -52 0 -63 4 -84 26 -22 24 -25 36 -25 103 0 42 4 135 10 206
5 72 14 220 20 330 6 110 15 274 20 365 14 247 40 704 50 889 8 149 11 166 31
187 20 21 31 24 98 24 42 0 149 -5 239 -10z m-4380 -2610 c89 -6 234 -14 323
-19 88 -5 163 -12 167 -15 5 -6 0 -127 -28 -616 -5 -85 -14 -240 -19 -345 -6
-104 -15 -266 -21 -360 -6 -93 -15 -251 -20 -350 -6 -99 -15 -261 -20 -360
-19 -338 -39 -700 -49 -890 -6 -104 -13 -227 -17 -272 -6 -82 -6 -83 -32 -83
-39 0 -345 17 -574 31 l-198 13 0 80 c0 45 4 140 10 211 5 72 14 220 20 330 6
110 15 277 21 370 25 455 40 717 49 890 5 105 14 259 21 343 6 85 9 156 6 158
-2 3 -48 -22 -102 -56 -53 -33 -115 -71 -138 -84 -23 -12 -117 -69 -209 -124
-91 -56 -170 -102 -175 -102 -13 0 -356 578 -349 589 6 9 163 103 396 236 116
67 164 94 415 240 52 30 139 80 193 111 53 31 106 63 117 70 11 8 26 14 35 14
8 -1 88 -5 178 -10z m2230 -50 c513 -65 855 -390 986 -940 111 -469 75 -1176
-86 -1645 -163 -477 -469 -761 -894 -830 -121 -19 -337 -19 -462 0 -353 56
-612 223 -785 506 -77 125 -142 298 -186 494 -63 288 -58 852 13 1236 17 95
49 221 82 324 37 114 154 348 216 430 110 144 271 278 413 340 73 33 211 73
290 84 86 12 317 13 413 1z m2072 -875 c127 -27 205 -79 273 -183 101 -153
120 -351 56 -565 -40 -132 -154 -259 -271 -302 -80 -30 -261 -28 -341 4 -114
45 -214 153 -259 279 -41 114 -35 344 12 472 56 152 177 264 320 296 76 17
127 16 210 -1z m1208 -61 c35 -5 40 -18 18 -49 -11 -16 -195 -334 -266 -461
-10 -16 -53 -91 -95 -165 -43 -74 -89 -154 -103 -179 -14 -25 -28 -49 -32 -55
-4 -5 -51 -86 -105 -180 -106 -183 -277 -481 -305 -530 -9 -16 -48 -83 -85
-149 l-68 -118 -76 6 c-42 4 -104 9 -139 12 l-63 6 35 62 c18 33 56 99 83 146
100 171 265 456 293 505 37 66 217 377 280 485 37 63 77 131 88 151 11 19 55
96 97 170 43 74 105 181 138 239 34 58 64 107 68 110 9 6 191 2 237 -6z m166
-870 c161 -41 276 -163 321 -339 19 -77 19 -260 0 -345 -42 -183 -143 -306
-300 -365 -66 -25 -229 -26 -298 -2 -159 56 -255 161 -303 332 -22 79 -22 267
1 356 47 186 166 321 324 365 65 17 182 17 255 -2z m-5925 -2010 l44 -6 -7
-106 c-4 -59 -11 -186 -16 -282 -14 -253 -29 -510 -42 -709 l-11 -173 -121 7
c-67 4 -124 9 -128 12 -5 2 -8 38 -8 80 l0 76 -22 -29 c-33 -41 -56 -61 -113
-92 -45 -24 -60 -27 -150 -27 -89 0 -106 3 -157 28 -60 29 -127 96 -158 157
-41 80 -52 146 -48 278 3 113 7 135 33 199 34 81 88 152 143 187 137 85 315
71 425 -35 28 -27 52 -47 54 -45 2 1 8 86 13 187 5 101 12 211 16 245 l6 61
101 -4 c56 -2 122 -6 146 -9z m472 -32 c4 -4 4 -59 0 -122 l-6 -115 -135 4
c-74 2 -139 7 -144 12 -10 9 -9 217 1 232 6 10 274 -1 284 -11z m-137 -388
l119 -6 -7 -162 c-6 -154 -21 -416 -34 -615 l-7 -95 -105 3 c-58 2 -123 6
-145 10 l-40 7 3 44 c1 25 6 126 12 225 22 419 31 581 35 593 3 7 14 10 27 8
13 -3 77 -8 142 -12z m669 -15 c78 -11 204 -46 211 -58 3 -4 -2 -39 -10 -77
-7 -38 -14 -79 -14 -92 0 -30 -23 -37 -57 -18 -91 50 -214 71 -257 43 -63 -42
-34 -91 78 -133 180 -67 244 -116 270 -205 20 -66 20 -89 0 -160 -56 -200
-316 -268 -633 -167 l-63 20 6 52 c17 122 23 156 29 162 4 4 33 -5 65 -19 32
-14 93 -31 135 -37 115 -19 177 0 177 54 0 34 -25 51 -150 106 -123 54 -165
82 -207 137 -25 33 -28 44 -28 117 0 97 22 147 87 198 58 46 81 56 163 72 89
18 110 18 198 5z m4563 -41 c-3 -29 -6 -93 -7 -143 l-2 -90 93 -7 c50 -3 95
-10 99 -15 4 -4 4 -53 1 -108 l-5 -100 -102 3 c-101 3 -103 2 -103 -20 0 -13
-5 -88 -10 -168 -15 -237 5 -280 126 -280 l64 0 0 -89 c0 -67 -4 -92 -15 -101
-22 -19 -182 -25 -246 -10 -106 25 -160 67 -201 155 -21 45 -23 65 -23 195 0
80 2 188 5 240 l5 95 -35 3 c-19 1 -54 5 -77 8 l-43 5 0 84 c0 46 4 95 9 108
10 24 11 25 95 20 l86 -6 0 89 c0 49 4 95 9 102 4 7 30 19 57 27 27 7 78 22
114 33 36 11 76 20 89 21 22 1 23 -1 17 -51z m-3641 -27 c105 -32 100 -24 85
-134 -7 -52 -16 -100 -20 -107 -5 -9 -18 -6 -51 11 -36 20 -59 24 -129 24 -78
0 -89 -2 -129 -30 -72 -49 -95 -109 -92 -246 1 -59 45 -126 102 -159 57 -31
168 -39 238 -16 27 9 52 16 55 16 3 0 6 -50 6 -110 0 -130 7 -123 -144 -142
-78 -10 -105 -9 -185 6 -117 21 -191 58 -257 128 -87 92 -124 187 -124 318 1
195 83 341 233 415 40 19 92 40 117 45 71 14 216 5 295 -19z m805 -45 c80 -29
108 -46 162 -95 119 -109 165 -281 123 -460 -38 -160 -133 -265 -285 -317 -77
-26 -270 -25 -355 1 -230 72 -340 253 -307 508 14 114 53 199 123 269 47 47
140 99 199 111 55 12 295 0 340 -17z m669 -42 l34 -5 -7 -72 c-15 -171 -26
-411 -20 -448 20 -122 149 -169 230 -83 46 48 62 116 74 310 5 93 13 193 16
223 l6 54 140 -6 c77 -3 142 -8 145 -10 3 -3 0 -88 -6 -189 -6 -101 -16 -273
-22 -383 -6 -110 -13 -222 -17 -250 l-7 -50 -90 4 c-50 2 -108 6 -130 10 l-40
6 3 72 4 72 -54 -53 c-157 -156 -424 -119 -514 72 -21 45 -28 77 -32 147 -4
88 13 499 24 561 l6 30 111 -3 c62 -2 127 -6 146 -9z m1024 -64 c5 -4 7 -35 5
-69 -3 -66 3 -74 28 -36 9 13 39 39 67 58 156 101 362 68 452 -74 46 -72 59
-146 52 -307 -12 -259 -27 -466 -35 -472 -4 -4 -69 -2 -145 3 l-138 10 6 121
c3 67 10 175 16 242 15 187 -10 265 -93 283 -83 19 -151 -22 -180 -106 -18
-51 -38 -244 -38 -361 0 -38 -3 -90 -6 -116 l-7 -46 -136 6 c-75 4 -140 10
-144 14 -5 4 -4 94 2 201 6 107 16 295 22 419 6 124 13 231 15 238 3 11 28 12
127 7 67 -4 126 -11 130 -15z"/>
<path d="M9240 12314 c0 -5 -7 -52 -15 -104 -24 -153 -46 -290 -56 -355 -22
-136 -39 -245 -50 -324 -12 -82 -12 -85 11 -103 32 -26 111 -25 135 2 17 19
18 35 11 213 -5 105 -11 299 -15 429 -4 130 -10 240 -14 244 -4 4 -7 3 -7 -2z"/>
<path d="M9143 9453 c-237 -83 -373 -575 -373 -1350 0 -512 68 -745 248 -850
60 -35 171 -44 240 -18 154 58 256 246 318 584 40 215 57 442 57 766 1 344
-11 461 -63 614 -59 177 -171 272 -318 270 -37 0 -86 -7 -109 -16z"/>
<path d="M11351 8938 c-58 -30 -91 -164 -91 -364 0 -179 27 -234 115 -234 78
0 109 63 126 254 15 175 0 298 -42 333 -23 19 -82 25 -108 11z"/>
<path d="M12675 7986 c-46 -49 -60 -125 -60 -321 0 -178 9 -216 56 -240 58
-31 111 -12 142 50 30 61 41 141 41 295 1 129 -2 160 -16 187 -40 72 -110 85
-163 29z"/>
<path d="M6402 5643 c-75 -37 -126 -181 -102 -288 29 -131 133 -190 239 -136
44 23 61 46 84 115 42 122 4 260 -83 304 -52 26 -93 28 -138 5z"/>
<path d="M9422 5484 c-72 -37 -112 -124 -112 -244 0 -81 13 -125 50 -173 48
-61 149 -73 212 -25 56 43 80 100 86 204 4 83 2 97 -20 146 -14 31 -39 65 -56
77 -42 30 -117 37 -160 15z"/>
</g>
</svg>
